<svg id="Layer_1" data-name="Layer 1" xmlns="http://www.w3.org/2000/svg" viewBox="0 0 142.47 51.36"><defs><style>.cls-1{fill:#fff;}.cls-2{fill:#cb2228;}.cls-3{fill:#b2b2b2;}.cls-4,.cls-5{fill:#007e3a;}.cls-5{fill-rule:evenodd;}</style></defs><title>logo</title><path class="cls-1" d="M43.48,16.29a1.06,1.06,0,0,0-1-.73H32.66l-3-9.35a1,1,0,0,0-2,0l-3,9.36H14.75a1.06,1.06,0,0,0-1,.73,1,1,0,0,0,.38,1.16l8,5.79-3,9.36a1,1,0,0,0,.38,1.16,1.07,1.07,0,0,0,1.23,0l8-5.79,8,5.78a1.05,1.05,0,0,0,1.22,0,1.07,1.07,0,0,0,.39-1.16l-3.05-9.36,8-5.79a1,1,0,0,0,.36-1.16"/><path class="cls-2" d="M20.43,32.71a.21.21,0,0,1-.24,0,.18.18,0,0,1-.07-.21l3.13-9.65-8.2-6a.2.2,0,0,1-.07-.22.19.19,0,0,1,.19-.13H25.31l3.13-9.64a.17.17,0,0,1,.18-.13.2.2,0,0,1,.19.14l3.13,9.63H42.08a.21.21,0,0,1,.19.14.2.2,0,0,1-.07.21l-8.2,6,3.13,9.64a.22.22,0,0,1-.08.22.24.24,0,0,1-.23,0l-8.2-6Z"/><path class="cls-3" d="M22.09,23.24l-7.95-5.79a.94.94,0,0,1-.32-.39,1.07,1.07,0,0,0,.41,1L22,23.65Zm13.05,0,8-5.79a1,1,0,0,0,.32-.39A1.07,1.07,0,0,1,43,18l-7.73,5.62-.14-.41Zm-6.52,5.34,7.8,5.67A1.08,1.08,0,0,0,37.91,34a1,1,0,0,0,.21-.62,1.06,1.06,0,0,1-.31.36,1,1,0,0,1-1.22,0l-8-5.78-8,5.79a1.05,1.05,0,0,1-1.22,0,.94.94,0,0,1-.31-.35,1,1,0,0,0,.21.61,1.06,1.06,0,0,0,1.49.23l7.79-5.67Z"/><polygon class="cls-4" points="37.76 7.3 37.63 7.51 37.51 7.73 37.39 7.51 37.26 7.3 37.02 7.3 36.77 7.3 36.9 7.09 37.02 6.88 36.9 6.67 36.77 6.46 37.02 6.46 37.26 6.46 37.39 6.24 37.51 6.03 37.63 6.24 37.76 6.46 38 6.46 38.25 6.46 38.12 6.67 38 6.88 38.12 7.09 38.25 7.3 38 7.3 37.76 7.3"/><polygon class="cls-4" points="41.54 3.46 41.42 3.67 41.29 3.88 41.17 3.67 41.05 3.46 40.8 3.46 40.56 3.46 40.68 3.25 40.8 3.04 40.68 2.83 40.56 2.61 40.8 2.61 41.05 2.61 41.17 2.4 41.29 2.19 41.42 2.4 41.54 2.61 41.78 2.61 42.03 2.61 41.91 2.83 41.78 3.04 41.91 3.25 42.03 3.46 41.78 3.46 41.54 3.46"/><polygon class="cls-4" points="46.58 12.61 46.46 12.82 46.34 13.03 46.21 12.82 46.09 12.61 45.84 12.61 45.6 12.61 45.72 12.4 45.84 12.19 45.72 11.97 45.6 11.76 45.84 11.76 46.09 11.76 46.21 11.55 46.34 11.34 46.46 11.55 46.58 11.76 46.83 11.76 47.07 11.76 46.95 11.97 46.83 12.19 46.95 12.4 47.07 12.61 46.83 12.61 46.58 12.61"/><polygon class="cls-4" points="43.29 6.29 43.17 6.5 43.05 6.71 42.92 6.5 42.8 6.29 42.56 6.29 42.31 6.29 42.43 6.08 42.56 5.87 42.43 5.65 42.31 5.44 42.56 5.44 42.8 5.44 42.92 5.23 43.05 5.02 43.17 5.23 43.29 5.44 43.54 5.44 43.78 5.44 43.66 5.65 43.54 5.87 43.66 6.08 43.78 6.29 43.54 6.29 43.29 6.29"/><polygon class="cls-4" points="50.44 18.79 50.32 19 50.2 19.21 50.07 19 49.95 18.79 49.7 18.79 49.46 18.79 49.58 18.57 49.7 18.36 49.58 18.15 49.46 17.94 49.7 17.94 49.95 17.94 50.07 17.73 50.2 17.52 50.32 17.73 50.44 17.94 50.69 17.94 50.93 17.94 50.81 18.15 50.69 18.36 50.81 18.57 50.93 18.79 50.69 18.79 50.44 18.79"/><polygon class="cls-4" points="6.8 18.79 6.93 19 7.05 19.21 7.17 19 7.29 18.79 7.54 18.79 7.79 18.79 7.66 18.57 7.54 18.36 7.66 18.15 7.79 17.94 7.54 17.94 7.29 17.94 7.17 17.73 7.05 17.52 6.93 17.73 6.8 17.94 6.56 17.94 6.31 17.94 6.44 18.15 6.56 18.36 6.44 18.57 6.31 18.79 6.56 18.79 6.8 18.79"/><polygon class="cls-4" points="56.75 11.2 56.63 11.41 56.51 11.62 56.39 11.41 56.26 11.2 56.02 11.2 55.77 11.2 55.89 10.98 56.02 10.77 55.89 10.56 55.77 10.35 56.02 10.35 56.26 10.35 56.39 10.14 56.51 9.93 56.63 10.14 56.75 10.35 57 10.35 57.24 10.35 57.12 10.56 57 10.77 57.12 10.98 57.24 11.2 57 11.2 56.75 11.2"/><polygon class="cls-4" points="0.49 11.2 0.61 11.41 0.74 11.62 0.86 11.41 0.98 11.2 1.23 11.2 1.47 11.2 1.35 10.98 1.23 10.77 1.35 10.56 1.47 10.35 1.23 10.35 0.98 10.35 0.86 10.14 0.74 9.93 0.61 10.14 0.49 10.35 0.24 10.35 0 10.35 0.12 10.56 0.24 10.77 0.12 10.98 0 11.2 0.24 11.2 0.49 11.2"/><polygon class="cls-4" points="19.49 7.3 19.61 7.51 19.73 7.73 19.86 7.51 19.98 7.3 20.23 7.3 20.47 7.3 20.35 7.09 20.23 6.88 20.35 6.67 20.47 6.46 20.23 6.46 19.98 6.46 19.86 6.24 19.73 6.03 19.61 6.24 19.49 6.46 19.24 6.46 19 6.46 19.12 6.67 19.24 6.88 19.12 7.09 19 7.3 19.24 7.3 19.49 7.3"/><polygon class="cls-4" points="15.71 3.46 15.83 3.67 15.95 3.88 16.07 3.67 16.2 3.46 16.44 3.46 16.69 3.46 16.57 3.25 16.44 3.04 16.57 2.83 16.69 2.61 16.44 2.61 16.2 2.61 16.07 2.4 15.95 2.19 15.83 2.4 15.71 2.61 15.46 2.61 15.21 2.61 15.34 2.83 15.46 3.04 15.34 3.25 15.21 3.46 15.46 3.46 15.71 3.46"/><polygon class="cls-4" points="10.66 12.61 10.79 12.82 10.91 13.03 11.03 12.82 11.15 12.61 11.4 12.61 11.65 12.61 11.52 12.4 11.4 12.19 11.52 11.97 11.65 11.76 11.4 11.76 11.15 11.76 11.03 11.55 10.91 11.34 10.79 11.55 10.66 11.76 10.42 11.76 10.17 11.76 10.29 11.97 10.42 12.19 10.29 12.4 10.17 12.61 10.42 12.61 10.66 12.61"/><polygon class="cls-4" points="13.95 6.29 14.07 6.5 14.2 6.71 14.32 6.5 14.44 6.29 14.69 6.29 14.93 6.29 14.81 6.08 14.69 5.87 14.81 5.65 14.93 5.44 14.69 5.44 14.44 5.44 14.32 5.23 14.2 5.02 14.07 5.23 13.95 5.44 13.71 5.44 13.46 5.44 13.58 5.65 13.71 5.87 13.58 6.08 13.46 6.29 13.71 6.29 13.95 6.29"/><polygon class="cls-4" points="28.62 0.79 29.24 0 29.2 1 30.18 0.79 29.51 1.53 30.39 1.99 29.4 2.13 29.78 3.05 28.93 2.52 28.62 3.47 28.32 2.52 27.47 3.05 27.84 2.13 26.85 1.99 27.74 1.53 27.07 0.79 28.05 1 28.01 0 28.62 0.79"/><path class="cls-4" d="M19.18,40C12.9,38.21,8.75,35.57,8.75,31.77A5.2,5.2,0,0,1,9.89,28.2c.08-.1,0-.22-.14-.11a5.09,5.09,0,0,0-1.5,3.8c.12,3.63,3.43,6.29,10.84,8.34.11,0,.16,0,.19-.08A.15.15,0,0,0,19.18,40Z"/><path class="cls-4" d="M27.45,47.13c-.47,0-.62.48-.69.79a4.11,4.11,0,0,0-.15,1.18,3,3,0,0,0,.29,1.34,1,1,0,0,0,.55.47.49.49,0,0,0,.69-.51,16.06,16.06,0,0,1,.11-2.54A.77.77,0,0,0,27.45,47.13Z"/><path class="cls-4" d="M27,46.85c.15-.38.43-.88,0-1.33a.82.82,0,0,0-1.26.2,4.54,4.54,0,0,0-.5,2c-.09.8,0,2.21.62,2.51a1.08,1.08,0,0,0,.75.12,3.89,3.89,0,0,1-.27-1.76A2.55,2.55,0,0,1,27,46.85Z"/><path class="cls-4" d="M25.84,45.06a.82.82,0,0,0-.7-.73.93.93,0,0,0-1,.61,6,6,0,0,0-.38,1.5,7.06,7.06,0,0,0-.09,1.72,1.57,1.57,0,0,0,.55,1.25,1,1,0,0,0,.75.15,1.79,1.79,0,0,1-.14-.55,5.59,5.59,0,0,1,0-1.58,6.13,6.13,0,0,1,.28-1.4A1.52,1.52,0,0,1,25.84,45.06Z"/><path class="cls-4" d="M24,44.57a.81.81,0,0,0-.63-.35.84.84,0,0,0-.72.41,3.82,3.82,0,0,0-.39,2c.06,1,.24,1.26.43,1.43a.86.86,0,0,0,.71.23,6.64,6.64,0,0,1,.06-1.92A4.26,4.26,0,0,1,24,44.57Z"/><path class="cls-5" d="M23.63,11.66h0c-.22,0-.14,0-.07,0Z"/><path class="cls-5" d="M23.63,11.66h0Z"/><path class="cls-5" d="M23.67,11.66h0Z"/><path class="cls-4" d="M24.81,39c-.28,0-1.82-.24-3-.49-6.64-1.37-10.68-4.36-10.68-7.81,0-2.09,1.36-3.5,3.3-4.84a.26.26,0,0,0,.08-.08h0v0h0v0h0v-.08h0v0h0a.13.13,0,0,0-.15-.06h-.07c-2.77,1.77-3.92,3.22-3.92,5.3,0,3.74,4.24,6.71,11.34,8,0,0,1.52.31,3,.46A.32.32,0,0,0,25,39.2C25.08,39.08,25,39,24.81,39Z"/><path class="cls-4" d="M21.82,45.33c-10.74-1.85-17.44-7-17.44-12.55C4.38,30,6.31,27.05,9.31,25a21,21,0,0,1,4.74-2.4.15.15,0,0,0,.06-.06.16.16,0,0,0,0-.09.15.15,0,0,0-.1-.15h-.12a26.05,26.05,0,0,0-4.49,2.17c-3.78,2.26-6,5.36-6,8.57,0,5.93,7.3,11,18.25,12.76,0,0,.18,0,.22-.18S21.82,45.33,21.82,45.33Z"/><path class="cls-4" d="M9.74,26.6a16.43,16.43,0,0,1,4.32-2.48s.06,0,.07-.05h0v0h0a.19.19,0,0,0,0-.07.16.16,0,0,0-.13-.16H14a17,17,0,0,0-4.46,2.5A8.08,8.08,0,0,0,6.13,32.6c0,2.43,1.55,4.62,4.45,6.53a22.63,22.63,0,0,0,6.47,2.68.14.14,0,1,0,.08-.27c-1.08-.3-10.47-3-10.47-8.94A7.55,7.55,0,0,1,9.74,26.6Z"/><path class="cls-4" d="M43.49,22.25h-.07a.16.16,0,0,0-.15.16.17.17,0,0,0,0,.07l0,0h0s0,0,0,0h0C48.93,25,51.83,28.18,51.83,32c0,5.71-7,8.75-11.33,10,0,0-.17.06-.23-.08a.19.19,0,0,1,.11-.22C44.9,40.22,51,37.13,51,32.24c0-3-1.78-5.69-7.48-8.28h0a.13.13,0,0,0-.08,0,.06.06,0,0,0-.06,0,.16.16,0,0,0-.12.16.16.16,0,0,0,.11.14h0c4.63,2.34,5.89,5.28,5.89,7.2,0,5.14-6.22,7.65-11,8.66,0,0-.17,0-.2-.1a.12.12,0,0,1,.08-.16c4.56-1,10.17-4.06,10.17-8.2,0-1.77-1.47-4.4-5.12-6.12l0,0h-.06a.16.16,0,0,0-.15.16.13.13,0,0,0,0,.12l0,0c2.14,1.42,3.27,3.17,3.27,5.08,0,3.29-4.22,6.15-9.67,7.41h0l-.52.12-.24,0h0l-.5.11a8.49,8.49,0,0,1-3.86-.15,5.92,5.92,0,0,0-2.6-.47,5.09,5.09,0,0,0-2.61.71,5,5,0,0,0-1.15,1c-.61.59-.05,1.2.62,1.35a2,2,0,0,0,1.46-.21,7.79,7.79,0,0,1,1.12-.44,7.77,7.77,0,0,1,2.63.83,6.82,6.82,0,0,1,2.39,1.72,7.16,7.16,0,0,1,1.11,3c.11.72-.05,1.39-.5,1.56a.65.65,0,0,1-.55,0,10.16,10.16,0,0,0-.72-2.64c-.06-.14-.15-.16-.24-.11s-.07.17,0,.31a9,9,0,0,1,.49,2.57,5.25,5.25,0,0,1-.08,1.1.87.87,0,0,1-.44.64,1,1,0,0,1-.62.1,4.65,4.65,0,0,0,0-1,10.16,10.16,0,0,0-.56-2.24c-.06-.14-.16-.18-.26-.12s-.11.18-.05.32a7.43,7.43,0,0,1,.38,1.9,3.16,3.16,0,0,1,0,1.19,1.52,1.52,0,0,1-.19.47.79.79,0,0,1-.51.37.83.83,0,0,1-.52,0,3.24,3.24,0,0,0,.07-.64,5.27,5.27,0,0,0-.36-1.87c-.05-.14-.11-.21-.22-.18s-.1.18-.06.32a5.18,5.18,0,0,1,.19,1.67,1.51,1.51,0,0,1-.47,1.19h0a.32.32,0,0,1-.36.06.28.28,0,0,0-.36.15.27.27,0,0,0,.14.36.93.93,0,0,0,.94-.14,1.93,1.93,0,0,0,.35-.39,1.25,1.25,0,0,0,.43.07,1.14,1.14,0,0,0,.37,0,1.3,1.3,0,0,0,.86-.68h0l.09-.2a1.66,1.66,0,0,0,.32,0,1.49,1.49,0,0,0,.72-.17,1.4,1.4,0,0,0,.72-1h0a4.22,4.22,0,0,0,.07-.73,1.18,1.18,0,0,0,.28,0,1.23,1.23,0,0,0,.43-.09c.65-.25.94-1,.82-2.1a34.18,34.18,0,0,0,4.7-.9c8.46-2.14,14.38-6.57,14.38-11.85C54.05,28.59,50,24.66,43.49,22.25Z"/><path class="cls-4" d="M67.54,10.77h2.08a2.71,2.71,0,0,1,0,5.41H67.54ZM69.27,15a1.39,1.39,0,0,0,1.15-.46,1.55,1.55,0,0,0,.39-1.06,1.59,1.59,0,0,0-.39-1.06A1.42,1.42,0,0,0,69.27,12h-.33v3Zm8.92,1.19H76.44L75.1,14.1v2.08H73.69V10.77h2.19a1.66,1.66,0,0,1,1.33.48,1.73,1.73,0,0,1,.46,1.19,1.59,1.59,0,0,1-.49,1.2,1.53,1.53,0,0,1-.69.33Zm-2.83-3a1,1,0,0,0,.6-.14.73.73,0,0,0,.27-.53A.74.74,0,0,0,76,12a1,1,0,0,0-.6-.14H75.1v1.34Zm5.56,2.3a.84.84,0,1,1-1.68,0,.84.84,0,0,1,1.68,0Zm2.59-4.72H85.6c1,0,1.52.49,1.52,1.41a1.15,1.15,0,0,1-.59,1.12,1.25,1.25,0,0,1,.76.33,1.48,1.48,0,0,1,.35,1c0,.95-.72,1.53-1.87,1.53H83.51Zm1.66,2.13c.43,0,.66-.18.66-.53s-.23-.53-.66-.53h-.26V12.9Zm0,2.19c.7,0,1-.17,1-.57a.52.52,0,0,0-.26-.47,1.53,1.53,0,0,0-.75-.1h-.29v1.14Zm8.32,1.09H91.78L90.44,14.1v2.08H89V10.77h2.18a1.67,1.67,0,0,1,1.34.48A1.73,1.73,0,0,1,93,12.44a1.6,1.6,0,0,1-.5,1.2,1.44,1.44,0,0,1-.69.33Zm-2.84-3a1,1,0,0,0,.6-.14.69.69,0,0,0,.27-.53A.71.71,0,0,0,91.3,12a1,1,0,0,0-.6-.14h-.26v1.34Zm8.83-1.68a2.82,2.82,0,0,1,.78,2,2.87,2.87,0,0,1-1,2.21,3.06,3.06,0,0,1-2,.68,2.87,2.87,0,0,1-3-2.94,2.84,2.84,0,0,1,1-2.15,3.05,3.05,0,0,1,2-.69A2.9,2.9,0,0,1,99.53,11.51Zm-3.74,2A1.53,1.53,0,1,0,97.31,12,1.52,1.52,0,0,0,95.79,13.47Zm5.92-2.7h1.41l2.59,3.31V10.77h1.41v5.41h-1.41l-2.59-3.31v3.31h-1.41Zm7.05,0h1.41l2.59,3.31V10.77h1.4v5.41h-1.4l-2.59-3.31v3.31h-1.41ZM117.22,12v.9h1.58v1.2h-1.58V15h1.67v1.19h-3.08V10.77h3.08V12ZM125,16.18h-1.75l-1.34-2.08v2.08h-1.41V10.77h2.19a1.65,1.65,0,0,1,1.33.48,1.73,1.73,0,0,1,.46,1.19,1.59,1.59,0,0,1-.49,1.2,1.53,1.53,0,0,1-.69.33Zm-2.83-3a1,1,0,0,0,.6-.14.73.73,0,0,0,.27-.53.74.74,0,0,0-.27-.53,1,1,0,0,0-.6-.14h-.26v1.34Zm5.49-2.42-1.32,2.38h-.84l.94-2.38Zm3.9,1.4a1.42,1.42,0,0,0-.92-.36c-.34,0-.6.2-.6.47a.32.32,0,0,0,.13.26c.15.13.21.16.84.35.94.27,1.33.71,1.33,1.51a1.76,1.76,0,0,1-.55,1.41,2.41,2.41,0,0,1-1.57.51,3.28,3.28,0,0,1-1.87-.61l.6-1.13a1.88,1.88,0,0,0,1.24.55c.41,0,.68-.21.68-.53s-.18-.43-.84-.63a2.64,2.64,0,0,1-1-.43,1.32,1.32,0,0,1-.43-1.08,1.73,1.73,0,0,1,1.84-1.82,3.77,3.77,0,0,1,1.71.43Zm5,22.13A1.69,1.69,0,1,0,138.19,36,1.69,1.69,0,0,0,136.51,34.3ZM60.7,37.46l3.78-15.24h3.74l3.67,15.24H69.11l-.74-3.21h-4l-.83,3.21Zm4.16-5.79h2.89l-1.41-6.16h0ZM74,37.46V22.22h2.91V34.88h4v2.58Zm9.32,0V22.22h2.91V34.88h4v2.58Zm7.24-6.59V28.55h4.11v2.32Zm7.31-3.75c0-3.76,2-5.11,4.81-5.11s4.81,1.35,4.81,5.11v5.44c0,3.76-2,5.11-4.81,5.11s-4.81-1.35-4.81-5.11Zm2.91,5.82c0,1.69.74,2.15,1.9,2.15s1.9-.46,1.9-2.15v-6.2c0-1.69-.74-2.16-1.9-2.16s-1.9.47-1.9,2.16Zm9.77,4.52V22.22h3.19l4.05,9h0v-9h2.66V37.46h-2.78l-4.46-9.84h0v9.84Zm13.18,0V22.22h7.62v2.57h-4.7V28.3h3.5v2.57h-3.5v4h4.91v2.58Zm13.73-5.15h-1.9L135,22.22h3.08Z"/><path class="cls-4" d="M139.62,36a1.42,1.42,0,0,1,1.43-1.43A1.4,1.4,0,0,1,142.47,36,1.42,1.42,0,0,1,141,37.42,1.4,1.4,0,0,1,139.62,36Zm2.6,0a1.18,1.18,0,1,0-1.17,1.19A1.16,1.16,0,0,0,142.22,36Zm-1.73-.82h.59c.37,0,.58.16.58.48a.42.42,0,0,1-.3.45l.34.64h-.33l-.31-.6h-.25v.6h-.32Zm.57.73c.19,0,.3-.06.3-.23s-.11-.22-.3-.22h-.25v.45Z"/></svg>